PathFileType	4	(X/Y/Z)	C:\Users\Biomechanik\SynologyDrive\AlexP\Athlete_03\Athlete_3_22_07_06\sq_70_EMG\marker_experimental.trc																																																																																																																																																																												
DataRate	CameraRate	NumFrames	NumMarkers	Units	OrigDataRate	OrigDataStartFrame	OrigNumFrames																																																																																																																																																																								
200	200	4	58	mm	200	576	1537																																																																																																																																																																								
Frame#	Time	BL			BR			GLAB			RFHD			LFHD			C7			T6			SPINMOL			SPINM2			SPINM3			T12			BELTOL			BELT2			BELT3			SACROL			SACR2			SACR3			LTHOL			LTH2			LTH3			LSHAOL			LSHA2			LSHA3			LHEE			LTOE			LM5			RTHOL			RTH2			RTH3			RSHAOL			RSHA2			RSHA3			RHEE			RTOE			RM5			STRN			XIPH			LACR			LUAOL			LUA2			LUA3			LLAOL			LLA2			LLA3			LWRU			RACR			RUAOL			RUA3			RLAOL			RLA2			RLA3			RWRU			USERMO0			USERMO1			USERMO2			USERMO3			USERMO4			USERMO5		
		X1	Y1	Z1	X2	Y2	Z2	X3	Y3	Z3	X4	Y4	Z4	X5	Y5	Z5	X6	Y6	Z6	X7	Y7	Z7	X8	Y8	Z8	X9	Y9	Z9	X10	Y10	Z10	X11	Y11	Z11	X12	Y12	Z12	X13	Y13	Z13	X14	Y14	Z14	X15	Y15	Z15	X16	Y16	Z16	X17	Y17	Z17	X18	Y18	Z18	X19	Y19	Z19	X20	Y20	Z20	X21	Y21	Z21	X22	Y22	Z22	X23	Y23	Z23	X24	Y24	Z24	X25	Y25	Z25	X26	Y26	Z26	X27	Y27	Z27	X28	Y28	Z28	X29	Y29	Z29	X30	Y30	Z30	X31	Y31	Z31	X32	Y32	Z32	X33	Y33	Z33	X34	Y34	Z34	X35	Y35	Z35	X36	Y36	Z36	X37	Y37	Z37	X38	Y38	Z38	X39	Y39	Z39	X40	Y40	Z40	X41	Y41	Z41	X42	Y42	Z42	X43	Y43	Z43	X44	Y44	Z44	X45	Y45	Z45	X46	Y46	Z46	X47	Y47	Z47	X48	Y48	Z48	X49	Y49	Z49	X50	Y50	Z50	X51	Y51	Z51	X52	Y52	Z52	X53	Y53	Z53	X54	Y54	Z54	X55	Y55	Z55	X56	Y56	Z56	X57	Y57	Z57	X58	Y58	Z58
																																																																																																																																																																															
577	2.88	122.0921707	1270.431763	-2258.923828	200.1994629	1290.449463	-38.223423	520.4676514	1435.846802	-1134.55188	455.2461548	1447.101074	-1062.346558	461.6914978	1447.920654	-1215.340698	258.884552	1371.641357	-1139.371704	99.9779129	1241.444092	-1145.476929	77.87400055	1211.500122	-1150.536865	43.98036575	1158.012207	-1101.544922	52.75265884	1154.913574	-1150.708862	34.92076111	1100.151611	-1150.81958	4.417277813	1070.384155	-1145.653564	-7.327821732	1009.512268	-1095.364502	-13.33594894	1010.786499	-1145.189209	-17.66146088	931.28125	-1176.668091	-9.020583153	940.6422119	-1127.064697	-41.32950974	883.6485596	-1137.332764	103.5737457	723.9590454	-1406.026733	63.3047142	655.0643921	-1400.037231	109.2253036	663.6115112	-1419.475586	86.29080963	325.510437	-1509.695068	57.24862289	252.1469269	-1514.55603	102.0194702	268.3491516	-1528.816162	70.27763367	36.86772537	-1497.417603	271.1225891	50.07108307	-1554.474976	205.2181091	22.29633141	-1645.602905	82.45980072	695.2622681	-899.4177246	120.6083374	633.1896362	-866.6057129	74.91720581	634.5592651	-887.5008545	44.78401184	316.2053528	-804.211792	91.20024872	261.4379272	-770.2960205	47.8833313	255.4218445	-794.8241577	53.40049744	34.87584305	-822.09552	247.116333	46.22512817	-746.6427002	178.5325165	36.50198746	-661.2748413	345.901886	1225.458374	-1150.026245	317.9344177	1072.505981	-1144.111328	218.0231171	1320.987305	-1330.95105	93.55114746	1226.876953	-1361.928223	58.5540657	1182.231689	-1327.024658	63.44174957	1179.330322	-1377.949219	48.54269028	1148.449463	-1455.48999	91.73642731	1166.864746	-1500.983765	87.43065643	1198.956543	-1462.834351	133.1695557	1245.400024	-1514.752808	242.1859436	1318.180664	-957.3323975	117.7646103	1214.724854	-913.2373657	63.68745804	1187.237549	-906.4380493	72.1778183	1181.190186	-832.0864868	119.6733093	1224.88208	-836.3445435	110.4137039	1207.748535	-788.8042603	145.5807495	1247.18457	-766.7304077	0.042250801	0.00974615	-0.0501322	0.00982262	0.063503601	-0.052944802	0.0188521	0.055201601	-0.022000199	0.114859998	0.212357998	-0.777072012	0.380874008	2.933069944	-0.360089988	2.584939957	0	0
578	2.885	121.9527512	1270.578979	-2258.958252	200.3300171	1290.605591	-38.26513672	520.7039795	1435.485596	-1134.655029	455.4992371	1446.821533	-1062.445679	461.9253845	1447.614868	-1215.430664	258.8861694	1371.697388	-1139.42395	99.87275696	1241.441772	-1145.494263	77.76409149	1211.494995	-1150.532593	43.90254593	1158.006348	-1101.518311	52.63941956	1154.90979	-1150.688477	34.81659317	1100.150024	-1150.792969	4.347146988	1070.366821	-1145.615601	-7.355497837	1009.484741	-1095.328369	-13.38687897	1010.762634	-1145.149536	-17.73206139	931.2661743	-1176.63147	-9.04846859	940.6178589	-1127.022461	-41.34170914	883.612793	-1137.281006	103.4790268	723.9527588	-1406.043945	63.23242188	655.0354614	-1400.029663	109.1356888	663.6083374	-1419.499512	86.25792694	325.503479	-1509.690063	57.22954941	252.1333923	-1514.543091	101.9909363	268.3443298	-1528.812744	70.3042984	36.8658638	-1497.404297	271.1235657	50.07033539	-1554.477051	205.2169342	22.29248428	-1645.604248	82.56565094	695.2585449	-899.4345093	120.7163544	633.180481	-866.6362305	75.01500702	634.5575562	-887.5124512	44.85534286	316.2074585	-804.2362671	91.26715851	261.4390869	-770.319397	47.94549561	255.430069	-794.8424683	53.41089249	34.87864685	-822.1079102	247.1248322	46.21673203	-746.6505127	178.5384521	36.50793076	-661.2858887	345.9345398	1225.550659	-1150.091919	317.9957581	1072.616821	-1144.165649	217.9793854	1321.079712	-1330.98877	93.48803711	1226.980469	-1361.967163	58.50482941	1182.333252	-1327.061646	63.38364029	1179.431763	-1377.987671	48.47935486	1148.561523	-1455.526367	91.67681885	1166.980347	-1501.019653	87.36687469	1199.069946	-1462.868896	133.1142578	1245.519531	-1514.776978	242.1883392	1318.298462	-957.3946533	117.7721329	1214.833496	-913.2559814	63.6940918	1187.349731	-906.44104	72.20986176	1181.300293	-832.0939331	119.7049866	1224.99231	-836.3717041	110.4491577	1207.866699	-788.8166504	145.6194153	1247.30249	-766.7591553	0.043165199	0.00970468	-0.0491497	0.00974852	0.064280003	-0.052807398	0.0192941	0.0538393	-0.022289099	0.118000001	0.215994999	-0.774585009	0.381150007	2.918400049	-0.35966599	2.54824996	0	0
579	2.89	121.8134155	1270.733154	-2258.991211	200.4620514	1290.770264	-38.3053627	520.9373169	1435.115112	-1134.753296	455.749115	1446.534058	-1062.542358	462.1593628	1447.303711	-1215.517456	258.8879395	1371.754517	-1139.478882	99.76331329	1241.439941	-1145.512329	77.64872742	1211.490112	-1150.528931	43.81952667	1158.001343	-1101.491821	52.52013397	1154.90686	-1150.668213	34.70711136	1100.147705	-1150.765625	4.273169518	1070.348511	-1145.576294	-7.385369778	1009.456604	-1095.290894	-13.4413147	1010.737793	-1145.10791	-17.8061676	931.24823	-1176.592773	-9.078976631	940.5908813	-1126.977661	-41.35517502	883.5738525	-1137.226685	103.3772736	723.946106	-1406.059326	63.15517044	655.0028076	-1400.017822	109.0412445	663.6022949	-1419.518433	86.22189331	325.4960022	-1509.682983	57.2081337	252.1188965	-1514.527466	101.9592133	268.3391724	-1528.807861	70.32818604	36.86394501	-1497.391479	271.1244812	50.06977463	-1554.479248	205.2158966	22.28907013	-1645.605591	82.67651367	695.255188	-899.4520264	120.8309097	633.1729126	-866.6661377	75.11902618	634.5567017	-887.5228271	44.93361664	316.2095337	-804.2614746	91.33905029	261.4393005	-770.3423462	48.01177597	255.4394836	-794.8604126	53.42139053	34.88137054	-822.1201782	247.1335754	46.20781708	-746.6588135	178.5449524	36.51401901	-661.2979126	345.9623718	1225.638794	-1150.158325	318.0502625	1072.724731	-1144.219849	217.9390106	1321.172363	-1331.028809	93.42378998	1227.088135	-1362.005981	58.45187759	1182.440674	-1327.099365	63.32149887	1179.539917	-1378.026001	48.41043854	1148.681519	-1455.563721	91.61287689	1167.102783	-1501.055664	87.29940796	1199.189819	-1462.903076	133.0565033	1245.644287	-1514.800659	242.1908112	1318.41687	-957.4575195	117.7708206	1214.950684	-913.2758179	63.6893425	1187.474121	-906.4432373	72.23148346	1181.423218	-832.1004639	119.7304611	1225.110962	-836.3994751	110.476944	1207.994507	-788.8286743	145.6535797	1247.427612	-766.786438	0.044016201	0.00965986	-0.048118901	0.00968789	0.064902298	-0.0524766	0.019772001	0.052310601	-0.0226705	0.120263003	0.219404995	-0.771777987	0.382061005	2.901710033	-0.359035999	2.508549929	0	0
580	2.895	121.6737137	1270.893677	-2259.023193	200.5952301	1290.943115	-38.34407043	521.1674194	1434.735352	-1134.845581	455.9949646	1446.239502	-1062.636108	462.3944092	1446.986816	-1215.600586	258.8902283	1371.812622	-1139.537109	99.65000916	1241.438721	-1145.53125	77.52850342	1211.48584	-1150.526123	43.73167419	1157.997559	-1101.466064	52.39500046	1154.904907	-1150.648804	34.59293747	1100.144653	-1150.738281	4.195683002	1070.329712	-1145.536621	-7.417582989	1009.428284	-1095.252686	-13.49903488	1010.712341	-1145.065674	-17.88271713	931.227478	-1176.552124	-9.112202644	940.5615845	-1126.931152	-41.37022781	883.5321045	-1137.170654	103.2694626	723.9394531	-1406.073242	63.07349014	654.9675293	-1400.00293	108.9431152	663.593689	-1419.532837	86.18326569	325.4882202	-1509.674805	57.18465805	252.1037292	-1514.510132	101.9248581	268.3338318	-1528.802002	70.34909058	36.86197662	-1497.379639	271.1253662	50.06945038	-1554.481201	205.2149963	22.28609085	-1645.606934	82.79110718	695.2523804	-899.4697876	120.9508286	633.1673584	-866.6948853	75.22820282	634.5568848	-887.5316772	45.01869202	316.2116699	-804.2867432	91.41571045	261.4385986	-770.3644409	48.08220291	255.4496155	-794.8776855	53.43185425	34.88402176	-822.1322021	247.1425018	46.19847488	-746.6676636	178.5519714	36.52022934	-661.3108521	345.9858093	1225.722778	-1150.225342	318.0984802	1072.828979	-1144.273438	217.9016876	1321.265503	-1331.070923	93.35913849	1227.199585	-1362.044678	58.39580536	1182.553589	-1327.137695	63.25599289	1179.654419	-1378.063721	48.33637619	1148.808594	-1455.601807	91.54492188	1167.231079	-1501.091553	87.22853088	1199.315308	-1462.937012	132.9960938	1245.773193	-1514.824707	242.1934509	1318.535034	-957.520752	117.7612	1215.075195	-913.2966309	63.67343903	1187.608887	-906.444397	72.24323273	1181.557739	-832.1056519	119.7498169	1225.237427	-836.4266357	110.4977417	1208.130615	-788.8400269	145.6834259	1247.559448	-766.8121338	0.044705998	0.00961702	-0.047119498	0.00963515	0.065374397	-0.051925	0.020261601	0.0506243	-0.0231394	0.121509001	0.222397998	-0.768812001	0.383574992	2.883090019	-0.35808301	2.466419935	0	0
